<svg width="96" height="96" viewBox="0 0 96 96" fill="none" xmlns="http://www.w3.org/2000/svg">
<path fill-rule="evenodd" clip-rule="evenodd" d="M44.3353 1.00586L3.09375 22.4627V65.221L44.3353 94.5185H93.9674V22.4627L44.3353 1.00586ZM56.9163 67.3756H58.8639V71.4527L62.4995 67.3756H64.8627L61.5257 71.1151L65.0834 76.4517H62.7462L60.1494 72.6213L58.8639 74.0625V76.4517H56.9163V67.3756ZM69.4412 69.7777V71.4397H68.7141C68.1947 71.4397 67.8052 71.5955 67.5714 71.9071C67.3248 72.2188 67.2079 72.6472 67.2079 73.1796V76.4517H65.3771V69.7777H67.0391L67.2079 70.7775C67.4027 70.4529 67.6494 70.2062 67.948 70.0374C68.2337 69.8686 68.6362 69.7777 69.1296 69.7777H69.4412ZM69.9395 71.3228C70.2251 70.8035 70.6147 70.4139 71.121 70.1283C71.6274 69.8426 72.2117 69.6998 72.8869 69.6998C73.5621 69.6998 74.1464 69.8426 74.6658 70.1023C75.1852 70.362 75.5877 70.7385 75.8733 71.219C76.159 71.6994 76.3148 72.2577 76.3278 72.9069C76.3278 73.1406 76.3018 73.3484 76.2758 73.5302H71.4327V73.5821C71.4716 74.0755 71.6274 74.4521 71.9001 74.7247C72.1598 75.0104 72.5363 75.1402 73.0038 75.1402C73.3673 75.1402 73.679 75.0623 73.9257 74.9065C74.1724 74.7507 74.3412 74.504 74.4191 74.1924H76.2239C76.146 74.6339 75.9772 75.0364 75.7175 75.3869C75.4448 75.7505 75.0943 76.0232 74.6528 76.2309C74.2113 76.4387 73.7049 76.5296 73.1336 76.5296C72.3805 76.5296 71.7443 76.3997 71.199 76.1141C70.6536 75.8414 70.2381 75.4519 69.9525 74.9325C69.6668 74.4131 69.524 73.8158 69.524 73.1277C69.524 72.4395 69.6538 71.8422 69.9395 71.3228ZM74.497 72.3356C74.4321 71.9331 74.2633 71.6215 73.9906 71.4007C73.7179 71.18 73.3803 71.0632 72.9648 71.0632C72.5623 71.0632 72.2247 71.18 71.952 71.4137C71.6794 71.6474 71.5236 71.9461 71.4716 72.3356H74.497ZM77.4717 71.3228H76.368V69.7777H77.4717V67.908H79.3025V69.7777H80.8217V71.3228H79.3025V74.2443C79.3025 74.478 79.3415 74.6468 79.4453 74.7507C79.5492 74.8546 79.718 74.9065 79.9517 74.9065H80.8996V76.4517H79.3804C78.1079 76.4517 77.4717 75.8154 77.4717 74.543V71.3228ZM81.3184 69.7777H86.9666V71.0242L83.6296 74.9065H87.1224V76.4517H81.1626V75.2052L84.4996 71.3228H81.3184V69.7777ZM63.6302 79.856C62.955 80.2455 62.4486 80.7779 62.0851 81.4791C61.7215 82.1802 61.5527 82.9852 61.5527 83.9071C61.5527 84.842 61.7215 85.647 62.0851 86.3482C62.4486 87.0493 62.955 87.5817 63.6302 87.9583C64.3054 88.3478 65.0974 88.5296 66.0063 88.5296C66.7075 88.5296 67.3437 88.3997 67.915 88.1141C68.4734 87.8414 68.9278 87.4519 69.2784 86.9455C69.616 86.4521 69.8237 85.8678 69.9016 85.2056H67.954C67.8371 85.7249 67.6034 86.1404 67.2399 86.4391C66.8763 86.7377 66.4348 86.8806 65.9025 86.8806C65.1753 86.8806 64.591 86.6079 64.1755 86.0625C63.7471 85.5172 63.5393 84.7901 63.5393 83.9071C63.5393 83.0242 63.7471 82.2971 64.1755 81.7517C64.591 81.2064 65.1753 80.9337 65.9025 80.9337C66.4348 80.9337 66.8763 81.0895 67.2399 81.3882C67.6034 81.6868 67.8371 82.0893 67.954 82.6087H69.9016C69.8237 81.9595 69.616 81.3752 69.2784 80.8688C68.9278 80.3754 68.4734 79.9859 67.915 79.7002C67.3437 79.4275 66.7075 79.2847 66.0063 79.2847C65.0974 79.2847 64.3054 79.4795 63.6302 79.856ZM72.4615 79.3626H70.6307V88.4517H72.4615V79.3626ZM79.762 88.4517V81.7777H77.9313V85.0627C77.9313 85.686 77.8014 86.1664 77.5547 86.504C77.295 86.8416 76.9444 87.0104 76.49 87.0104C76.0485 87.0104 75.7109 86.8676 75.5032 86.5559C75.2954 86.2443 75.1916 85.7899 75.1916 85.1796V81.7777H73.3608V85.4003C73.3608 86.53 73.6075 87.335 74.1009 87.8154C74.5943 88.2958 75.2305 88.5296 76.0096 88.5296C76.451 88.5296 76.8406 88.4517 77.1522 88.2958C77.4638 88.14 77.7365 87.9323 77.9702 87.6466L78.139 88.4517H79.762ZM87.3064 83.2969C87.0467 82.7775 86.6831 82.388 86.2157 82.1153C85.7482 81.8426 85.2159 81.6998 84.6186 81.6998C83.7876 81.6998 83.1124 82.0114 82.606 82.6217V79.3626H80.7752V88.4517H82.3723L82.5541 87.5428C82.7748 87.8544 83.0605 88.0881 83.4111 88.2699C83.7486 88.4517 84.1641 88.5296 84.6316 88.5296C85.2159 88.5296 85.7482 88.3867 86.2157 88.1011C86.6831 87.8154 87.0467 87.4129 87.3064 86.8935C87.566 86.3742 87.7089 85.7769 87.7089 85.1017C87.7089 84.4135 87.566 83.8162 87.3064 83.2969ZM85.8521 85.1147C85.8521 85.686 85.6963 86.1534 85.3977 86.504C85.086 86.8676 84.6965 87.0364 84.2031 87.0364C83.7097 87.0364 83.3072 86.8676 83.0215 86.504C82.7229 86.1534 82.5801 85.686 82.5801 85.1017C82.5801 84.5304 82.7229 84.0759 83.0215 83.7254C83.3072 83.3748 83.7097 83.193 84.2031 83.193C84.6965 83.193 85.086 83.3748 85.3977 83.7254C85.6963 84.0889 85.8521 84.5434 85.8521 85.1147Z" fill="white"/>
</svg>
